<?xml version="1.0" standalone="no"?>
<!DOCTYPE svg PUBLIC "-//W3C//DTD SVG 20010904//EN"
 "http://www.w3.org/TR/2001/REC-SVG-20010904/DTD/svg10.dtd">
<svg version="1.0" xmlns="http://www.w3.org/2000/svg"
 width="700.000000pt" height="700.000000pt" viewBox="0 0 700.000000 700.000000"
 preserveAspectRatio="xMidYMid meet">
<metadata>
Created by potrace 1.14, written by Peter Selinger 2001-2017
</metadata>
<g transform="translate(0.000000,700.000000) scale(0.100000,-0.100000)"
fill="#000000" stroke="none">
<path d="M2393 6980 c-85 -19 -139 -26 -288 -35 -228 -14 -367 -39 -445 -80
-45 -24 -84 -35 -140 -40 -126 -12 -162 -31 -314 -170 -6 -5 -51 -37 -101 -69
-82 -54 -251 -177 -307 -225 -152 -128 -187 -161 -417 -394 -107 -109 -205
-216 -218 -238 -40 -71 -110 -328 -128 -474 -3 -27 -8 -59 -10 -70 -23 -107
-28 -298 -11 -355 15 -50 27 -176 41 -440 7 -117 12 -175 31 -334 6 -51 8 -64
18 -106 3 -14 8 -37 10 -52 9 -54 59 -204 86 -258 15 -30 61 -104 101 -165 40
-60 113 -189 161 -285 48 -96 92 -182 97 -190 35 -55 108 -191 200 -373 156
-308 237 -434 349 -538 53 -50 160 -174 226 -262 19 -25 23 -35 12 -31 -9 3
-16 9 -16 13 0 4 -11 13 -25 19 l-25 12 14 -35 c25 -59 96 -156 166 -224 37
-36 98 -111 137 -166 39 -55 110 -138 158 -185 140 -137 198 -215 241 -320 10
-25 37 -74 59 -111 22 -36 45 -74 52 -85 73 -119 206 -374 244 -469 27 -67 57
-148 72 -195 11 -38 18 -45 38 -44 64 3 174 29 206 50 30 19 42 47 129 309
100 302 114 328 342 660 57 83 138 207 179 277 86 143 143 214 211 260 43 29
166 146 202 193 12 15 8 15 -20 -5 -19 -13 -38 -29 -42 -35 -5 -6 -8 -6 -8 2
0 6 8 18 19 25 10 7 55 47 101 88 105 95 117 105 164 143 113 91 259 245 381
401 32 41 123 153 140 172 110 124 216 214 340 289 44 27 91 57 105 68 83 62
312 241 365 285 18 15 170 134 296 232 25 19 112 78 192 130 559 361 585 382
710 580 23 36 77 101 120 145 145 148 260 360 336 621 18 61 29 115 56 264 4
19 8 105 9 190 3 118 -1 175 -14 240 -55 264 -160 560 -222 627 -11 12 -35 25
-52 28 -17 4 -67 28 -111 55 -123 73 -301 131 -485 156 -25 3 -48 8 -51 10
-12 7 -241 18 -369 17 -168 0 -449 -16 -540 -29 -19 -3 -101 -7 -181 -9 -136
-5 -149 -7 -207 -35 -58 -28 -70 -30 -214 -34 -167 -5 -304 -30 -367 -67 -158
-92 -399 -307 -512 -454 -81 -107 -171 -246 -216 -332 -24 -46 -44 -78 -44
-71 -4 34 -9 62 -32 178 -25 119 -29 147 -43 300 -22 245 -74 392 -184 523
-50 59 -90 94 -238 203 -84 61 -121 98 -196 192 -51 65 -106 124 -122 133 -40
22 -104 21 -201 -1z"/>
</g>
</svg>
