<?xml version="1.0" encoding="UTF-8" standalone="no"?>
<!-- Created with Inkscape (http://www.inkscape.org/) -->

<svg
   width="37.804924mm"
   height="27.337067mm"
   viewBox="0 0 37.804924 27.337067"
   version="1.1"
   id="svg5"
   xml:space="preserve"
   xmlns:inkscape="http://www.inkscape.org/namespaces/inkscape"
   xmlns:sodipodi="http://sodipodi.sourceforge.net/DTD/sodipodi-0.dtd"
   xmlns="http://www.w3.org/2000/svg"
   xmlns:svg="http://www.w3.org/2000/svg"><sodipodi:namedview
     id="namedview7"
     pagecolor="#ffffff"
     bordercolor="#000000"
     borderopacity="0.25"
     inkscape:showpageshadow="2"
     inkscape:pageopacity="0.0"
     inkscape:pagecheckerboard="0"
     inkscape:deskcolor="#d1d1d1"
     inkscape:document-units="mm"
     showgrid="false" /><defs
     id="defs2" /><g
     inkscape:label="Layer 1"
     inkscape:groupmode="layer"
     id="layer1"
     transform="translate(-121.6193,-175.23742)"><g
       inkscape:label="Layer 1"
       id="layer1-2"
       transform="translate(61.686938,-62.283682)"
       style="fill:#5d3891;fill-opacity:1;stroke:none"><path
         id="path4144-9"
         style="fill:#5d3891;fill-opacity:1;stroke:none;stroke-width:1;stroke-opacity:1"
         d="m 82.74529,241.35326 c -0.0051,0.0113 -0.01094,0.0223 -0.01602,0.0336 -0.02415,0.0539 -0.04777,0.10814 -0.0708,0.16278 -0.04608,0.10916 -0.09036,0.21926 -0.13436,0.3297 -0.04399,0.11043 -0.08728,0.22124 -0.13229,0.33072 -0.0225,0.0548 -0.04539,0.10924 -0.06873,0.1633 -0.02334,0.0541 -0.04727,0.10755 -0.07183,0.16072 -0.02457,0.0532 -0.04979,0.10565 -0.07597,0.15762 -0.02616,0.052 -0.05346,0.10355 -0.08164,0.15399 -0.02818,0.0505 -0.05729,0.10007 -0.08785,0.14882 -0.03056,0.0487 -0.06226,0.0965 -0.09561,0.14315 -0.01289,0.018 -0.02688,0.035 -0.04135,0.0517 -0.01446,0.0167 -0.02985,0.0329 -0.04546,0.0486 -0.03125,0.0314 -0.06417,0.0615 -0.09766,0.0909 -0.0335,0.0295 -0.06719,0.0585 -0.09975,0.0889 -0.01628,0.0152 -0.03262,0.0311 -0.04807,0.047 -0.01543,0.0159 -0.03023,0.0321 -0.04445,0.0491 -0.02412,0.029 -0.04671,0.0589 -0.0682,0.0899 -0.0215,0.031 -0.04178,0.0632 -0.06149,0.0956 -0.03943,0.0648 -0.07636,0.13163 -0.113689,0.19793 -0.01868,0.033 -0.03744,0.0662 -0.05686,0.0987 -0.01941,0.0325 -0.03947,0.0644 -0.06045,0.0956 -0.02098,0.0312 -0.04275,0.0617 -0.06615,0.0909 -0.0234,0.0293 -0.04829,0.0576 -0.07494,0.0842 -0.0084,0.008 -0.01716,0.0154 -0.02687,0.0217 -0.0097,0.006 -0.02028,0.0117 -0.03099,0.0165 -0.02148,0.01 -0.04459,0.017 -0.06769,0.0243 -0.02308,0.007 -0.04621,0.0153 -0.06769,0.0248 -0.01073,0.005 -0.02071,0.0108 -0.03048,0.0165 -0.0097,0.006 -0.01869,0.0124 -0.02688,0.0212 -0.01283,0.0128 -0.02954,0.0309 -0.04857,0.0522 -0.01903,0.0213 -0.04035,0.046 -0.06306,0.0734 -0.02268,0.0275 -0.04697,0.0572 -0.07079,0.0884 -0.02383,0.0311 -0.04735,0.0636 -0.06978,0.0961 -0.02242,0.0325 -0.0435,0.0652 -0.062,0.0966 -0.0185,0.0314 -0.03446,0.0619 -0.0465,0.0899 -0.006,0.0139 -0.01105,0.0271 -0.01498,0.0398 -0.0039,0.0127 -0.0067,0.025 -0.0083,0.0362 -0.0015,0.0111 -0.0017,0.0213 -5.2e-4,0.0305 0.0012,0.009 0.0035,0.0172 0.0078,0.0243 0.02351,0.0392 0.04813,0.0768 0.07338,0.11317 0.02525,0.0364 0.05125,0.0719 0.07803,0.10593 0.02679,0.034 0.05461,0.0667 0.0827,0.0987 0.02808,0.0319 0.05662,0.0627 0.08578,0.093 0.02916,0.0303 0.05887,0.0599 0.08888,0.0889 0.03002,0.029 0.06033,0.0577 0.09095,0.0858 0.06125,0.0562 0.123171,0.11059 0.18552,0.16536 0.06236,0.0548 0.124909,0.11006 0.186551,0.1664 0.03082,0.0282 0.0617,0.0567 0.09199,0.0858 0.0303,0.0291 0.06036,0.0584 0.08992,0.0889 0.02955,0.0304 0.05824,0.0619 0.08681,0.0941 0.02858,0.0321 0.05686,0.065 0.08423,0.0992 0.02738,0.0342 0.05415,0.0698 0.0801,0.10645 0.02594,0.0367 0.05115,0.0747 0.07545,0.11421 0.0245,0.0397 0.04768,0.0803 0.06976,0.12144 0.02209,0.0412 0.04318,0.0829 0.06357,0.12505 0.04074,0.0843 0.0787,0.17008 0.116783,0.2558 0.03809,0.0857 0.07629,0.17121 0.117312,0.25528 0.02051,0.042 0.04179,0.0835 0.06408,0.12454 0.0223,0.0411 0.0455,0.0818 0.07028,0.12144 0.0277,0.0443 0.0572,0.0873 0.08785,0.12972 0.03065,0.0424 0.06243,0.084 0.09508,0.12505 0.06532,0.082 0.13382,0.16201 0.20154,0.24236 0.03386,0.0402 0.0672,0.0803 0.10025,0.12092 0.03306,0.0407 0.06584,0.0817 0.09716,0.12351 0.03132,0.0418 0.06128,0.0847 0.08991,0.12816 0.01433,0.0218 0.02838,0.0438 0.04187,0.0661 0.01348,0.0223 0.02624,0.0447 0.03876,0.0677 0.0075,0.0138 0.01269,0.0282 0.01599,0.0429 0.0033,0.0147 0.0049,0.0295 0.0052,0.045 1.95e-4,0.0155 -7.22e-4,0.0316 -0.0026,0.0475 -0.0019,0.016 -0.0044,0.0323 -0.0072,0.0486 -0.0057,0.0326 -0.01223,0.0653 -0.01551,0.0977 -0.0016,0.0162 -0.0026,0.0322 -0.0021,0.0481 5.6e-4,0.0158 0.0024,0.0313 0.0062,0.0465 0.0018,0.007 0.005,0.0136 0.0088,0.0196 0.0038,0.006 0.0083,0.0119 0.01345,0.0171 0.01034,0.0103 0.02303,0.0191 0.03618,0.028 0.01313,0.009 0.02688,0.0171 0.03876,0.0269 0.0059,0.005 0.01118,0.0104 0.01602,0.016 0.005,0.006 0.0091,0.0115 0.01243,0.0181 0.0073,0.0147 0.01253,0.0296 0.01555,0.045 0.0029,0.0154 0.0038,0.031 0.0026,0.047 -0.0012,0.0161 -0.0042,0.0326 -0.0093,0.0491 -0.0051,0.0165 -0.01247,0.0331 -0.02119,0.0501 -0.0087,0.017 -0.01888,0.0342 -0.03102,0.0517 -0.01212,0.0175 -0.02608,0.0354 -0.04134,0.0532 -0.01526,0.0179 -0.03198,0.0356 -0.05012,0.0538 -0.01816,0.0182 -0.0376,0.0369 -0.05841,0.0553 -0.02079,0.0184 -0.04296,0.0367 -0.06614,0.0553 -0.02319,0.0186 -0.04754,0.0376 -0.07287,0.0563 -0.05065,0.0375 -0.105073,0.075 -0.162777,0.11267 -0.0577,0.0377 -0.118623,0.0753 -0.181388,0.11261 -0.06276,0.0374 -0.127475,0.0746 -0.193263,0.11115 -0.06582,0.0365 -0.132625,0.0722 -0.199471,0.10747 -0.06684,0.0353 -0.13411,0.0699 -0.199984,0.1034 -0.13178,0.067 -0.259262,0.1301 -0.37517,0.18706 -0.115921,0.057 -0.219845,0.10781 -0.303867,0.15086 -0.04201,0.0215 -0.07904,0.0411 -0.11007,0.0584 -0.03103,0.0173 -0.05636,0.0323 -0.07441,0.045 -0.02422,0.017 -0.04736,0.0352 -0.06975,0.0543 -0.02242,0.0191 -0.04407,0.0393 -0.06511,0.06 -0.02105,0.0207 -0.04135,0.0418 -0.06149,0.0636 -0.02014,0.0218 -0.04025,0.0438 -0.05994,0.0661 -0.03939,0.0446 -0.07802,0.0902 -0.118339,0.13384 -0.02016,0.0218 -0.04094,0.0433 -0.062,0.0641 -0.02108,0.0208 -0.04266,0.0407 -0.06511,0.0599 -0.01425,0.0127 -0.02904,0.0238 -0.04444,0.0346 -0.01542,0.0108 -0.03139,0.0211 -0.04753,0.031 -0.03232,0.0198 -0.06599,0.0384 -0.09922,0.0568 -0.03321,0.0187 -0.06633,0.0375 -0.09765,0.0584 -0.01559,0.0109 -0.03081,0.0209 -0.04548,0.0325 -0.01467,0.0117 -0.02852,0.0244 -0.04185,0.0377 -0.01332,0.0133 -0.02576,0.0275 -0.0372,0.0424 -0.01144,0.0149 -0.02195,0.0305 -0.03205,0.0465 -0.02019,0.0319 -0.03828,0.0655 -0.05633,0.0992 -0.01803,0.0337 -0.03614,0.0673 -0.05633,0.0992 -0.0101,0.016 -0.0206,0.0316 -0.03205,0.0465 -0.01143,0.0149 -0.02388,0.029 -0.03721,0.0424 -0.0037,0.004 -0.0076,0.007 -0.01185,0.009 -0.0043,0.002 -0.0088,0.004 -0.01337,0.005 -0.0095,0.003 -0.01965,0.003 -0.03043,0.002 -0.01087,-0.001 -0.02244,-0.003 -0.0341,-0.006 -0.0117,-0.003 -0.02367,-0.007 -0.03565,-0.0103 -0.01198,-0.004 -0.02395,-0.007 -0.03565,-0.0103 -0.0117,-0.003 -0.02278,-0.005 -0.03359,-0.006 -0.01087,-0.001 -0.02107,-3.5e-4 -0.03043,0.002 -0.0047,0.001 -0.0093,0.003 -0.01337,0.006 -0.0043,0.002 -0.0081,0.005 -0.01185,0.009 -0.0073,0.007 -0.01301,0.0155 -0.01704,0.0243 -0.004,0.009 -0.0069,0.018 -0.0083,0.0279 -0.0013,0.0104 -0.0016,0.0203 -0.001,0.0309 5.61e-4,0.0107 0.0023,0.0219 0.0041,0.0331 0.0037,0.0224 0.0093,0.0459 0.01395,0.0687 0.0023,0.0114 0.0042,0.0225 0.0057,0.0336 0.0015,0.0111 0.0026,0.0221 0.0026,0.0326 -7e-6,0.0638 8.44e-4,0.12744 0.0031,0.19119 0.0023,0.0638 0.0057,0.12758 0.01033,0.19121 0.0047,0.0636 0.01082,0.12678 0.01808,0.19016 0.0073,0.0634 0.01583,0.12662 0.02583,0.18967 0.01,0.063 0.02121,0.12604 0.03411,0.18861 0.01297,0.0626 0.02744,0.12509 0.04341,0.18706 0.016,0.062 0.03397,0.12322 0.05322,0.18449 0.01924,0.0613 0.03985,0.12247 0.06254,0.18293 0.0171,0.0457 0.03514,0.0876 0.05322,0.12713 0.01808,0.0395 0.03635,0.0764 0.05478,0.11163 0.03683,0.0703 0.07394,0.13384 0.108516,0.19739 0.01728,0.0318 0.03378,0.0633 0.04961,0.0961 0.01584,0.0328 0.03069,0.0667 0.04444,0.10231 0.01372,0.0358 0.02665,0.0734 0.03772,0.11369 0.0055,0.0201 0.01026,0.0409 0.01499,0.0625 0.0048,0.0216 0.0096,0.0438 0.01347,0.0672 0.0053,0.0319 0.01102,0.074 0.01702,0.12299 0.006,0.049 0.01185,0.10519 0.01757,0.16639 0.0057,0.0612 0.01147,0.12745 0.01602,0.19586 0.0047,0.0684 0.0079,0.13912 0.01033,0.20981 0.0025,0.0707 0.0037,0.14127 0.0031,0.20929 -5.55e-4,0.068 -0.0027,0.13338 -0.0072,0.19378 -0.0023,0.0302 -0.0049,0.0589 -0.0083,0.0863 -0.0034,0.0274 -0.0077,0.0536 -0.0124,0.0775 -0.0047,0.0239 -0.01,0.0458 -0.01603,0.0656 -0.0061,0.0199 -0.01259,0.0376 -0.02014,0.0527 -0.01506,0.0301 -0.03227,0.059 -0.05065,0.0873 -0.01837,0.0284 -0.03813,0.0559 -0.05943,0.0827 -0.02131,0.0268 -0.04386,0.0531 -0.06769,0.0787 -0.02383,0.0254 -0.04899,0.0501 -0.07492,0.0744 -0.02597,0.0243 -0.05294,0.048 -0.08063,0.0713 -0.02769,0.0233 -0.05628,0.0462 -0.08527,0.0686 -0.05798,0.0451 -0.117945,0.0883 -0.178802,0.13125 -0.06085,0.043 -0.122444,0.0857 -0.182942,0.12811 -0.06049,0.0426 -0.119809,0.0852 -0.176741,0.12865 -0.02847,0.0217 -0.05622,0.0438 -0.0832,0.0661 -0.02696,0.0223 -0.05349,0.0447 -0.07855,0.0677 -0.02507,0.023 -0.04905,0.0463 -0.07183,0.0703 -0.02276,0.024 -0.04401,0.0488 -0.06409,0.0739 -0.01226,0.0153 -0.02342,0.0302 -0.03306,0.045 -0.0097,0.0147 -0.01789,0.0292 -0.02531,0.0435 -0.0074,0.0142 -0.01359,0.0281 -0.01913,0.0419 -0.0055,0.0138 -0.01045,0.0274 -0.01446,0.0408 -0.008,0.0268 -0.01303,0.053 -0.01706,0.0786 -0.004,0.0256 -0.0069,0.0506 -0.0098,0.0754 -0.0029,0.0249 -0.0058,0.0498 -0.01032,0.0744 -0.0023,0.0123 -0.005,0.0245 -0.0083,0.0367 -0.0032,0.0123 -0.0073,0.0249 -0.01188,0.0372 -0.0046,0.0124 -0.0098,0.0252 -0.01601,0.0378 -0.0062,0.0126 -0.01346,0.025 -0.0217,0.0378 -0.0082,0.0128 -0.01729,0.0257 -0.0279,0.0388 -0.01062,0.013 -0.02284,0.0259 -0.03618,0.0393 -0.01848,0.0185 -0.03849,0.0355 -0.05994,0.0512 -0.02145,0.0156 -0.04436,0.0301 -0.0677,0.0439 -0.04666,0.0276 -0.09602,0.0524 -0.143654,0.0785 -0.02378,0.0133 -0.04682,0.0267 -0.06924,0.0408 -0.02243,0.0142 -0.04414,0.0292 -0.06408,0.0455 -0.01003,0.008 -0.01928,0.0165 -0.02842,0.0253 -0.0091,0.009 -0.01817,0.0177 -0.02636,0.0274 -0.0083,0.01 -0.01566,0.0199 -0.02274,0.0305 -0.0071,0.0104 -0.01378,0.0219 -0.01964,0.0336 -0.0055,0.0111 -0.0099,0.0224 -0.01344,0.0346 -0.0035,0.0123 -0.0061,0.0253 -0.0078,0.0388 -0.0016,0.0135 -0.0022,0.0278 -0.0021,0.0424 1.37e-4,0.0146 0.0013,0.0293 0.0031,0.0451 0.0018,0.0156 0.0044,0.032 0.0078,0.0486 0.0034,0.0166 0.0071,0.0337 0.01187,0.0512 0.0096,0.0349 0.02238,0.0711 0.03721,0.10904 0.01481,0.0379 0.03197,0.0775 0.05116,0.11783 0.0192,0.0403 0.04032,0.0815 0.06305,0.1235 0.02272,0.042 0.04695,0.0846 0.07235,0.12764 0.02541,0.0431 0.05234,0.0867 0.07958,0.13023 0.05448,0.087 0.111638,0.1741 0.168465,0.2589 0.05683,0.0848 0.112914,0.16752 0.165364,0.24494 0.05244,0.0774 0.101264,0.14959 0.142626,0.21446 0.02068,0.0324 0.03967,0.0632 0.05634,0.0915 0.01665,0.0283 0.03111,0.0545 0.04289,0.078 0.0074,0.0149 0.0139,0.0304 0.02015,0.047 0.0063,0.0165 0.01224,0.0337 0.01755,0.0517 0.01069,0.0359 0.01946,0.0747 0.02744,0.11473 0.0079,0.0401 0.01463,0.0819 0.02119,0.12402 0.0066,0.0422 0.01298,0.0845 0.01968,0.1266 0.0067,0.0421 0.0135,0.084 0.0217,0.12402 0.0082,0.0401 0.01787,0.0783 0.02897,0.1142 0.0056,0.0179 0.01149,0.0352 0.01806,0.0517 0.0066,0.0165 0.01349,0.0322 0.0212,0.047 0.0077,0.0148 0.01623,0.029 0.02533,0.0419 0.0091,0.0128 0.01882,0.0245 0.02947,0.0351 0.0053,0.005 0.01426,0.0103 0.02635,0.0155 0.01209,0.005 0.02745,0.0108 0.04445,0.016 0.03399,0.0104 0.07549,0.0205 0.117306,0.031 0.04182,0.0105 0.08383,0.0211 0.117826,0.0315 0.01701,0.005 0.03185,0.0103 0.04393,0.0155 0.01209,0.005 0.02113,0.0108 0.02635,0.016 0.0051,0.005 0.0096,0.0124 0.01346,0.0222 0.0038,0.01 0.0071,0.0217 0.0099,0.0357 0.0027,0.0138 0.0049,0.0301 0.0067,0.0475 0.0018,0.0173 0.0032,0.0361 0.0041,0.0563 0.0019,0.0405 0.0023,0.0863 0.0016,0.13435 -7.83e-4,0.048 -0.0027,0.0985 -0.0052,0.14883 -0.005,0.1007 -0.01284,0.20101 -0.01912,0.28009 -0.0063,0.0791 -0.01137,0.13681 -0.01137,0.15296 -10e-7,0.15951 -2.19e-4,0.33023 -0.0021,0.5085 -9.2e-4,0.0891 -0.0022,0.18048 -0.0041,0.27285 -0.0019,0.0924 -0.004,0.18597 -0.0072,0.2806 -0.0032,0.0946 -0.0075,0.19036 -0.0124,0.28629 -0.0049,0.0959 -0.01065,0.1921 -0.01757,0.28835 -0.0069,0.0963 -0.015,0.19224 -0.02429,0.28784 -0.0093,0.0956 -0.01953,0.19075 -0.03153,0.28474 -0.012,0.094 -0.02577,0.18713 -0.04082,0.27853 -0.01505,0.0914 -0.03168,0.18088 -0.05013,0.26872 -0.0092,0.0439 -0.0188,0.0874 -0.02894,0.13023 -0.01014,0.0428 -0.02094,0.0855 -0.03204,0.12712 -0.01111,0.0417 -0.02253,0.0827 -0.03462,0.12299 -0.0026,0.009 -0.0056,0.0171 -0.0083,0.0258 0.186716,-0.041 0.360664,-0.0925 0.419603,-0.15146 0.188724,-0.18873 0.638326,-1.90349 0.878495,-2.38384 0.37617,-0.75235 0.916121,-1.4372 1.37976,-2.13268 0.314671,-0.47198 0.59692,-1.09869 1.003561,-1.50534 0.147849,-0.14785 0.353931,-0.22886 0.50178,-0.37671 1.844489,-1.84451 -1.27159,0.95106 0.878499,-1.00356 0.74092,-0.67356 0.88291,-0.68819 1.505331,-1.37977 0.67777,-0.75305 1.20883,-1.60963 2.007119,-2.25826 0.351061,-0.28522 0.76498,-0.4846 1.12913,-0.75292 1.101071,-0.81131 2.12127,-1.74853 3.26181,-2.50889 0.749631,-0.49975 1.55596,-0.93073 2.258261,-1.50534 0.864609,-0.70741 0.438698,-0.51724 1.12913,-1.38027 0.14778,-0.18471 0.35655,-0.31505 0.501779,-0.50178 0.978381,-1.25791 1.510796,-3.19482 1.379762,-4.76715 -0.04615,-0.55427 -0.601661,-2.6093 -1.003554,-3.01119 -0.09347,-0.0936 -0.257931,-0.066 -0.376205,-0.12506 -0.218093,-0.10905 -0.402272,-0.28292 -0.627353,-0.37672 -1.93308,-0.80545 -4.244979,-0.56051 -6.272489,-0.3762 -0.208222,0.019 -0.422319,-0.041 -0.62735,0 -0.220862,0.044 -0.405791,0.21085 -0.62735,0.25115 -0.24692,0.0446 -0.50396,-0.0311 -0.75293,0 -1.199556,0.14998 -1.147508,0.12719 -2.007111,0.7524 -0.975889,0.70975 -1.642259,1.60781 -2.258261,2.63447 -0.09622,0.16037 -0.181128,0.32815 -0.250628,0.50178 -0.0027,0.006 -0.0036,0.0176 -0.0046,0.0279 -0.01487,-0.31973 -0.09525,-0.62477 -0.16381,-0.93379 z" /><path
         id="path4458"
         style="fill:#5d3891;fill-opacity:1;stroke:none;stroke-width:1;stroke-opacity:1"
         d="m 67.329183,237.5694 c -0.316206,0.12359 -0.741904,0.44596 -0.871375,0.50689 -0.689677,0.32445 -1.401432,0.55967 -2.036173,1.00836 -0.183917,0.12992 -0.319434,0.31988 -0.503313,0.44991 -0.207726,0.1468 -0.474947,0.20596 -0.66457,0.37552 -0.311736,0.27873 -0.42827,0.72071 -0.685695,1.05027 -0.926615,1.18624 -1.62522,2.47621 -2.196169,3.87014 -0.112077,0.27364 -0.284186,0.52267 -0.374948,0.80409 -0.209526,0.64969 0.142443,2.42475 0.322677,3.08644 0.273172,1.00296 0.206048,0.432 0.632546,1.37227 0.552073,1.21711 0.957328,2.41902 1.801691,3.483 0.497338,0.6267 1.204552,0.92167 1.747508,1.49989 0.55369,0.58965 1.202118,1.06084 1.790455,1.61788 0.688462,0.65184 1.278314,1.27256 2.112357,1.76799 0.254231,0.15102 0.549676,0.22344 0.803907,0.37446 2.375225,1.4109 -0.566066,-0.24273 1.179115,1.0397 0.190626,0.14008 0.435866,0.18588 0.643138,0.2999 0.366405,0.20155 0.681568,0.48912 1.050756,0.68553 0.313263,0.16664 0.657851,0.2717 0.964547,0.45016 1.044205,0.60762 0.408071,0.35206 1.136477,0.92105 0.981878,0.76697 1.950774,1.59743 2.691109,2.6253 6.4e-5,-3e-5 0.274768,-0.14035 0.514798,-0.29294 -4.8e-4,-0.009 -6.29e-4,-0.018 -10e-4,-0.0271 -0.0024,-0.042 -0.0056,-0.0844 -0.0095,-0.12742 -0.0038,-0.043 -0.0083,-0.0867 -0.01335,-0.13042 -0.0052,-0.0438 -0.01102,-0.0878 -0.01733,-0.13228 -0.01272,-0.0888 -0.02764,-0.17861 -0.04481,-0.26965 -0.01706,-0.091 -0.03607,-0.18326 -0.05694,-0.27569 -0.02088,-0.0925 -0.04379,-0.18532 -0.06776,-0.27834 -0.02392,-0.0931 -0.0492,-0.18598 -0.07562,-0.2788 -0.0264,-0.0927 -0.05391,-0.18514 -0.08211,-0.27697 -0.0282,-0.0918 -0.0569,-0.18323 -0.08626,-0.27326 -0.02935,-0.09 -0.0594,-0.17869 -0.0892,-0.26614 -0.02981,-0.0875 -0.05983,-0.17373 -0.08947,-0.2578 -0.05919,-0.16817 -0.117385,-0.32866 -0.171942,-0.47856 -0.0055,-0.0152 -0.02048,-0.0712 -0.04163,-0.14762 -0.0211,-0.0765 -0.04811,-0.17338 -0.07783,-0.26973 -0.0149,-0.0482 -0.03034,-0.0962 -0.04601,-0.14164 -0.01572,-0.0454 -0.03176,-0.0882 -0.04746,-0.12569 -0.0079,-0.0187 -0.01544,-0.0358 -0.0231,-0.0515 -0.0076,-0.0157 -0.01528,-0.0302 -0.02254,-0.0423 -0.0073,-0.0121 -0.01451,-0.0223 -0.02143,-0.0302 -0.007,-0.008 -0.01378,-0.0133 -0.02022,-0.0162 -0.0066,-0.003 -0.01708,-0.005 -0.03025,-0.006 -0.0131,-7.4e-4 -0.02876,0 -0.04664,10e-5 -0.03545,0.002 -0.07871,0.006 -0.121497,0.0107 -0.04286,0.005 -0.08536,0.009 -0.120842,0.011 -0.01768,0.001 -0.03409,9.4e-4 -0.04722,2.1e-4 -0.0131,-7.4e-4 -0.0233,-0.002 -0.03007,-0.006 -0.01369,-0.007 -0.02675,-0.014 -0.03968,-0.0228 -0.01296,-0.009 -0.02578,-0.0194 -0.03813,-0.0308 -0.01229,-0.0112 -0.02418,-0.0237 -0.03599,-0.0369 -0.01188,-0.0132 -0.0233,-0.0274 -0.03468,-0.0424 -0.02271,-0.0299 -0.0449,-0.0627 -0.06625,-0.0974 -0.02143,-0.0349 -0.04214,-0.0718 -0.06281,-0.10911 -0.0207,-0.0373 -0.04119,-0.0749 -0.06176,-0.11226 -0.02064,-0.0374 -0.04118,-0.0743 -0.06233,-0.1093 -0.02113,-0.035 -0.04267,-0.0683 -0.06498,-0.0984 -0.01109,-0.0151 -0.0226,-0.0291 -0.0342,-0.0426 -0.0116,-0.0134 -0.02298,-0.0259 -0.03502,-0.0373 -0.01914,-0.0182 -0.04166,-0.0377 -0.06698,-0.0587 -0.02533,-0.0209 -0.05367,-0.0432 -0.08422,-0.0667 -0.06106,-0.0468 -0.131599,-0.0979 -0.207373,-0.15274 -0.07575,-0.0548 -0.156764,-0.11337 -0.239169,-0.17362 -0.0824,-0.0602 -0.165892,-0.12255 -0.246855,-0.18567 -0.04048,-0.0315 -0.08074,-0.0634 -0.119318,-0.0951 -0.0386,-0.0318 -0.07592,-0.0635 -0.111647,-0.0952 -0.03571,-0.0317 -0.06966,-0.0632 -0.10149,-0.0945 -0.03184,-0.0314 -0.06146,-0.0627 -0.08837,-0.0932 -0.0269,-0.0305 -0.05125,-0.0602 -0.07226,-0.0897 -0.01053,-0.0148 -0.01982,-0.0296 -0.02869,-0.0441 -0.0088,-0.0144 -0.01684,-0.029 -0.02395,-0.043 -0.0071,-0.0141 -0.01318,-0.0275 -0.01831,-0.0413 -0.0052,-0.0137 -0.0095,-0.0273 -0.01253,-0.0405 -0.0031,-0.0133 -0.0051,-0.0263 -0.0059,-0.0392 -9.25e-4,-0.0127 -6.28e-4,-0.0249 7.69e-4,-0.0371 0.0015,-0.0129 0.004,-0.0259 0.007,-0.0383 0.0031,-0.0124 0.0066,-0.0245 0.01094,-0.0365 0.0042,-0.0122 0.0098,-0.0234 0.01539,-0.0348 0.0055,-0.0115 0.01146,-0.0224 0.01807,-0.0334 0.01317,-0.0221 0.02842,-0.0437 0.04466,-0.0646 0.01621,-0.021 0.03317,-0.0417 0.05112,-0.062 0.03583,-0.0408 0.07373,-0.081 0.108147,-0.12291 0.01722,-0.0209 0.03377,-0.0424 0.0486,-0.0644 0.01482,-0.022 0.02777,-0.0449 0.03882,-0.0686 0.008,-0.017 0.01506,-0.0333 0.02055,-0.0493 0.0055,-0.0158 0.0096,-0.0311 0.01295,-0.046 0.0034,-0.0148 0.0059,-0.029 0.0075,-0.0428 0.0015,-0.014 0.0021,-0.0277 0.0021,-0.0409 1.07e-4,-0.0132 -4.77e-4,-0.0263 -0.0016,-0.039 -0.0012,-0.0127 -0.0027,-0.025 -0.0048,-0.0373 -0.0041,-0.0247 -0.0099,-0.049 -0.0157,-0.0735 -0.0058,-0.0244 -0.01154,-0.0487 -0.01655,-0.0743 -0.005,-0.0254 -0.0092,-0.0517 -0.01091,-0.0797 -8.38e-4,-0.014 -8.42e-4,-0.0284 -3.24e-4,-0.0433 4.36e-4,-0.0148 0.0015,-0.0299 0.0036,-0.0459 0.0021,-0.0159 0.0049,-0.0323 0.009,-0.0494 0.0041,-0.0172 0.0094,-0.0351 0.01569,-0.0535 0.01028,-0.0305 0.02176,-0.061 0.03494,-0.0914 0.01319,-0.0303 0.02779,-0.0603 0.04345,-0.0906 0.01569,-0.0302 0.03293,-0.0603 0.05066,-0.0905 0.01773,-0.0301 0.03626,-0.0604 0.05559,-0.0905 0.03861,-0.0603 0.07974,-0.12075 0.122065,-0.18136 0.04231,-0.0607 0.08558,-0.12182 0.128068,-0.183 0.04248,-0.0612 0.08401,-0.12242 0.123127,-0.18449 0.01954,-0.0311 0.03859,-0.0624 0.05663,-0.0938 0.01803,-0.0314 0.03525,-0.063 0.05137,-0.0946 0.01608,-0.0317 0.03126,-0.0635 0.04496,-0.0956 0.0137,-0.0321 0.02587,-0.0646 0.03673,-0.0971 0.01084,-0.0325 0.02,-0.0651 0.02755,-0.0981 0.0076,-0.033 0.0139,-0.0659 0.01773,-0.0994 0.0019,-0.0169 0.002,-0.0358 9.08e-4,-0.0564 -10e-4,-0.0207 -0.0036,-0.043 -0.0074,-0.0671 -0.0038,-0.0241 -0.0087,-0.0503 -0.01481,-0.0771 -0.0062,-0.0269 -0.01352,-0.0548 -0.0217,-0.0839 -0.01648,-0.0583 -0.03672,-0.12048 -0.05951,-0.18457 -0.02273,-0.0641 -0.04801,-0.13001 -0.0745,-0.19561 -0.02643,-0.0656 -0.0538,-0.13086 -0.08146,-0.19361 -0.02773,-0.0627 -0.05572,-0.12302 -0.08204,-0.17857 -0.02629,-0.0556 -0.05102,-0.10632 -0.07342,-0.15034 -0.0224,-0.044 -0.04218,-0.0816 -0.05809,-0.10974 -0.01167,-0.0207 -0.02374,-0.0398 -0.03563,-0.0586 -0.01191,-0.0186 -0.02343,-0.0366 -0.03548,-0.0537 -0.02419,-0.0341 -0.04919,-0.0651 -0.07433,-0.0939 -0.0251,-0.0288 -0.05067,-0.0556 -0.07675,-0.0809 -0.0261,-0.0255 -0.05237,-0.0494 -0.07948,-0.0733 -0.05421,-0.0478 -0.110842,-0.095 -0.169492,-0.14838 -0.02932,-0.0267 -0.05914,-0.0552 -0.08965,-0.0862 -0.03051,-0.031 -0.06176,-0.0641 -0.0935,-0.10126 -0.04199,-0.0491 -0.08227,-0.0995 -0.121329,-0.15051 -0.03906,-0.051 -0.07687,-0.1024 -0.113121,-0.15515 -0.03625,-0.0528 -0.07123,-0.10657 -0.104767,-0.16093 -0.03356,-0.0544 -0.06559,-0.10978 -0.09657,-0.16558 -0.03095,-0.0558 -0.06064,-0.11231 -0.08915,-0.16939 -0.02855,-0.0571 -0.05588,-0.11431 -0.08204,-0.1725 -0.02616,-0.0581 -0.0512,-0.11699 -0.07511,-0.17615 -0.02395,-0.059 -0.0465,-0.11868 -0.0683,-0.17861 -0.0036,-0.01 -0.0084,-0.0198 -0.01358,-0.0298 -0.0052,-0.01 -0.01079,-0.0197 -0.01685,-0.0296 -0.01212,-0.0198 -0.02547,-0.04 -0.0366,-0.0598 -0.0055,-0.01 -0.011,-0.0198 -0.01519,-0.0297 -0.0042,-0.01 -0.0075,-0.0197 -0.0097,-0.0295 -0.0021,-0.01 -0.0026,-0.0193 -0.0018,-0.029 6.27e-4,-0.0103 0.0033,-0.0192 0.0077,-0.0287 0.002,-0.005 0.0052,-0.008 0.0081,-0.0125 0.0032,-0.004 0.0069,-0.006 0.01062,-0.01 0.0077,-0.006 0.0175,-0.009 0.02801,-0.0121 0.0105,-0.003 0.0216,-0.005 0.03361,-0.006 0.01202,-0.001 0.02468,-0.001 0.03704,-0.002 0.01266,-2e-4 0.02495,-0.001 0.03704,-0.002 0.01202,-0.001 0.02358,-0.003 0.0341,-0.006 0.01051,-0.003 0.02001,-0.007 0.02801,-0.012 0.0041,-0.003 0.0075,-0.006 0.01097,-0.009 0.0032,-0.004 0.0057,-0.008 0.0081,-0.0125 0.008,-0.017 0.01479,-0.0347 0.02047,-0.0525 0.0057,-0.018 0.01018,-0.0362 0.0142,-0.0547 0.0081,-0.0369 0.01358,-0.0747 0.01901,-0.11249 0.0054,-0.0378 0.01093,-0.0756 0.01901,-0.11248 0.0041,-0.0185 0.0085,-0.0367 0.0142,-0.0547 0.0057,-0.018 0.01252,-0.0354 0.02046,-0.0526 0.008,-0.017 0.01662,-0.0338 0.02644,-0.0497 0.0098,-0.0161 0.02046,-0.0309 0.03163,-0.0461 0.02229,-0.0303 0.04694,-0.0594 0.0718,-0.0883 0.02486,-0.0289 0.0502,-0.0577 0.0738,-0.0874 0.01176,-0.015 0.02327,-0.03 0.03407,-0.0454 0.01075,-0.0155 0.02066,-0.0314 0.02994,-0.0477 0.01452,-0.0257 0.02799,-0.0518 0.0407,-0.0786 0.0127,-0.0267 0.0249,-0.0539 0.03635,-0.0815 0.02295,-0.0548 0.04368,-0.11082 0.06543,-0.16624 0.01087,-0.0277 0.02222,-0.0553 0.03372,-0.0826 0.01148,-0.0274 0.02334,-0.0542 0.03604,-0.0808 0.01271,-0.0266 0.02614,-0.053 0.04066,-0.0787 0.01452,-0.0256 0.03004,-0.0506 0.04698,-0.0749 0.01267,-0.018 0.03133,-0.0408 0.05454,-0.0677 0.02325,-0.0268 0.05135,-0.0579 0.08347,-0.0925 0.06422,-0.0692 0.144489,-0.15252 0.233924,-0.24572 0.08942,-0.0933 0.187635,-0.1961 0.288566,-0.3041 0.05046,-0.054 0.101816,-0.10955 0.152577,-0.16553 0.05074,-0.0561 0.101356,-0.11231 0.150681,-0.16922 0.0493,-0.0569 0.0974,-0.11394 0.143613,-0.17051 0.04621,-0.0565 0.09058,-0.11274 0.131912,-0.16789 0.04135,-0.0551 0.07965,-0.10899 0.114432,-0.16154 0.01737,-0.0263 0.03378,-0.0525 0.04922,-0.0778 0.01543,-0.0254 0.02999,-0.0502 0.04324,-0.0745 0.01326,-0.0244 0.02513,-0.0486 0.03596,-0.0719 0.01082,-0.0233 0.02048,-0.0456 0.0287,-0.0677 0.0082,-0.0221 0.01522,-0.0436 0.02064,-0.0642 0.0054,-0.0206 0.0091,-0.0401 0.01146,-0.0592 0.0023,-0.019 0.0036,-0.0371 0.0028,-0.0543 -8.03e-4,-0.0172 -0.0037,-0.0339 -0.0081,-0.0494 -0.0044,-0.0155 -0.01056,-0.0299 -0.01851,-0.0432 -0.008,-0.0135 -0.01807,-0.0256 -0.02995,-0.037 -0.0055,-0.005 -0.01136,-0.009 -0.01784,-0.0128 -0.0067,-0.004 -0.01323,-0.007 -0.02054,-0.01 -0.01462,-0.006 -0.03027,-0.008 -0.04563,-0.0121 -0.01549,-0.004 -0.03028,-0.008 -0.04353,-0.0139 -0.0066,-0.003 -0.01285,-0.007 -0.01847,-0.0115 -0.0055,-0.004 -0.01089,-0.009 -0.01498,-0.0154 -0.0088,-0.013 -0.01586,-0.0269 -0.02173,-0.0416 -0.0059,-0.0147 -0.01049,-0.0301 -0.01449,-0.0459 -0.008,-0.0316 -0.013,-0.0645 -0.01885,-0.0971 -0.0029,-0.0162 -0.0061,-0.0325 -0.0098,-0.0481 -0.0038,-0.0157 -0.0083,-0.0311 -0.01381,-0.0455 -0.0055,-0.0145 -0.012,-0.0277 -0.02028,-0.0405 -0.0081,-0.0127 -0.01794,-0.0245 -0.02974,-0.0349 -0.01963,-0.0173 -0.03928,-0.034 -0.05957,-0.0503 -0.02029,-0.0163 -0.04106,-0.0323 -0.06194,-0.0478 -0.0418,-0.0311 -0.0846,-0.0611 -0.128322,-0.0897 -0.04372,-0.0285 -0.08855,-0.0559 -0.133544,-0.0828 -0.04498,-0.0269 -0.08998,-0.0531 -0.135561,-0.0793 -0.09113,-0.0524 -0.182841,-0.10407 -0.272277,-0.15882 -0.0447,-0.0274 -0.08884,-0.0557 -0.132119,-0.085 -0.0433,-0.0293 -0.08574,-0.0597 -0.126916,-0.0918 -0.03683,-0.0287 -0.07259,-0.0591 -0.107577,-0.0901 -0.03498,-0.0309 -0.06916,-0.0626 -0.102808,-0.0951 -0.06731,-0.065 -0.132435,-0.13224 -0.197546,-0.19976 -0.06509,-0.0675 -0.130128,-0.1352 -0.197225,-0.20043 -0.03354,-0.0326 -0.06767,-0.0646 -0.102508,-0.0958 -0.03484,-0.0311 -0.07044,-0.0612 -0.10709,-0.0902 -0.03634,-0.0288 -0.07305,-0.056 -0.109971,-0.0815 -0.03692,-0.0256 -0.07423,-0.0498 -0.111675,-0.0726 -0.03741,-0.0228 -0.07524,-0.044 -0.113084,-0.0645 -0.03784,-0.0204 -0.07556,-0.0402 -0.11376,-0.0587 -0.03821,-0.0186 -0.07647,-0.0358 -0.114897,-0.0528 -0.03842,-0.017 -0.07717,-0.0332 -0.115783,-0.0491 -0.07717,-0.0318 -0.154884,-0.0624 -0.232212,-0.0926 -0.07733,-0.0301 -0.154108,-0.06 -0.230888,-0.0919 -0.03839,-0.016 -0.0767,-0.0326 -0.114809,-0.0495 -0.0381,-0.0169 -0.07616,-0.0346 -0.113924,-0.0531 -0.03777,-0.0185 -0.07512,-0.0377 -0.112416,-0.0581 -0.03733,-0.0204 -0.07466,-0.0417 -0.111468,-0.0645 -0.03679,-0.0228 -0.07336,-0.0473 -0.109561,-0.0729 -0.03619,-0.0256 -0.07218,-0.0525 -0.107662,-0.0812 -0.0064,-0.005 -0.01134,-0.0119 -0.01564,-0.0202 -0.0042,-0.008 -0.0076,-0.0179 -0.01,-0.0288 -0.0024,-0.0109 -0.004,-0.0235 -0.0046,-0.0369 -7.16e-4,-0.0133 -3.55e-4,-0.0274 4.23e-4,-0.0425 0.0017,-0.0305 0.0063,-0.0646 0.01296,-0.10038 0.0067,-0.0358 0.01524,-0.0739 0.02523,-0.11198 0.01,-0.0382 0.02093,-0.0768 0.03269,-0.11416 0.01174,-0.0374 0.02434,-0.0738 0.03627,-0.10733 0.01197,-0.0335 0.02355,-0.064 0.03415,-0.0905 0.01059,-0.0265 0.02011,-0.0492 0.0278,-0.0656 0.0051,-0.01 0.01105,-0.0198 0.01802,-0.0291 0.007,-0.009 0.01456,-0.0178 0.023,-0.026 0.01673,-0.0168 0.03594,-0.0316 0.05512,-0.0465 0.01931,-0.0145 0.03846,-0.0295 0.0553,-0.046 0.0083,-0.009 0.0165,-0.0169 0.02349,-0.0261 0.007,-0.009 0.01291,-0.0189 0.01783,-0.0296 0.01593,-0.0342 0.02963,-0.0693 0.04163,-0.10472 0.01196,-0.0355 0.02203,-0.0715 0.03106,-0.10804 0.009,-0.0365 0.017,-0.0734 0.02412,-0.11051 0.0071,-0.0372 0.01345,-0.0747 0.01967,-0.1122 0.0124,-0.0751 0.02423,-0.15051 0.03914,-0.22486 0.0074,-0.0372 0.01548,-0.0744 0.02508,-0.11087 0.0096,-0.0365 0.02057,-0.0724 0.03335,-0.10781 0.0075,-0.0208 0.01591,-0.0411 0.02496,-0.0614 0.0091,-0.0202 0.019,-0.0407 0.02909,-0.0606 0.0202,-0.0397 0.04193,-0.0785 0.06332,-0.11765 0.02139,-0.0392 0.04203,-0.0787 0.06069,-0.11882 0.0093,-0.0201 0.01824,-0.0406 0.0261,-0.0613 0.0079,-0.0207 0.01525,-0.0413 0.02116,-0.0627 0.01536,-0.0553 0.02883,-0.11096 0.04089,-0.16721 0.01206,-0.0562 0.02245,-0.11279 0.03165,-0.1699 0.0092,-0.0571 0.01723,-0.11487 0.02405,-0.17264 0.0068,-0.0578 0.01257,-0.11573 0.01749,-0.17408 0.0049,-0.0584 0.0091,-0.11679 0.01253,-0.17559 0.0034,-0.0588 0.0063,-0.11782 0.0087,-0.17697 0.0049,-0.11827 0.0076,-0.23721 0.0112,-0.35602 0.0036,-0.11883 0.0075,-0.23742 0.0135,-0.35577 0.003,-0.0592 0.0066,-0.1183 0.01086,-0.17718 9.69e-4,-0.0123 0.0025,-0.0247 0.0035,-0.0371 -0.0859,-0.13478 -0.169547,-0.27119 -0.239777,-0.41701 -0.473314,-0.98301 -0.77528,-1.85979 -1.811971,-2.41131 -0.65922,-0.35069 -1.034567,-0.28649 -1.683225,-0.58896 -0.476178,-0.22203 -0.682684,-0.49549 -1.168265,-0.64273 -0.06616,-0.0201 -0.159316,-9.5e-4 -0.264654,0.0406 z" /></g></g></svg>
